<?xml version="1.0" encoding="iso-8859-1"?>
<?xml-stylesheet href="css/style.css" type="text/css"?>
<?xml-script href="js/main.js" ?>
<!-- Generator: Adobe Illustrator 19.0.0, SVG Export Plug-In . SVG Version: 6.00 Build 0)  -->
<svg version="1.1" id="Plane" xmlns="http://www.w3.org/2000/svg" xmlns:xlink="http://www.w3.org/1999/xlink" x="0px" y="0px"
	 viewBox="0 0 799 599" style="enable-background:new 0 0 799 599;" xml:space="preserve" preserveAspectRatio="xMidYMid meet">
<g id="Surface" style="display:none;">
	<g style="display:inline;">
		<polygon style="stroke:#000000;stroke-width:0.5;" points="310.77,213.047 284.399,200.043 295.529,196.831 324.534,201.516 		"/>
		<polygon style="stroke:#000000;stroke-width:0.5;" points="343.924,206.915 310.77,213.047 324.534,201.516 351.031,223.172 		"/>
		<polygon style="stroke:#000000;stroke-width:0.5;" points="269.996,209.615 243.079,203.613 258.911,190.82 284.399,200.043 		"/>
		<polygon style="stroke:#000000;stroke-width:0.5;" points="300.094,210.94 269.996,209.615 284.399,200.043 310.77,213.047 		"/>
		<polygon style="stroke:#000000;stroke-width:0.5;" points="333.283,215.284 300.094,210.94 310.77,213.047 343.924,206.915 		"/>
		<polygon style="stroke:#000000;stroke-width:0.5;" points="224.571,224.708 199.324,172.413 213.275,174.664 243.079,203.613
			"/>
		<polygon style="stroke:#000000;stroke-width:0.5;" points="258.567,204.326 224.571,224.708 243.079,203.613 269.996,209.615
			"/>
		<polygon style="stroke:#000000;stroke-width:0.5;" points="470.875,217.665 434.276,219.079 440.257,211.5 474.956,204.189 		"/>
		<polygon style="stroke:#000000;stroke-width:0.5;" points="507.31,215.3 470.875,217.665 474.956,204.189 506.124,228.732 		"/>
		<polygon style="stroke:#000000;stroke-width:0.5;" points="752.618,250.945 715.877,248.468 708.328,245.195 744.09,244.24 		"/>
		<polygon style="stroke:#000000;stroke-width:0.5;" points="323.78,228.878 289.257,209.186 300.094,210.94 333.283,215.284 		"/>
		<polygon style="stroke:#000000;stroke-width:0.5;" points="573.813,251.146 538.79,240.826 539.36,233.856 573.517,235.861 		"/>
		<polygon style="stroke:#000000;stroke-width:0.5;" points="790.316,251.663 752.618,250.945 744.09,244.24 780.002,245.754 		"/>
		<polygon style="stroke:#000000;stroke-width:0.5;" points="610.869,243.827 573.813,251.146 573.517,235.861 607.806,237.037
			"/>
		<polygon style="stroke:#000000;stroke-width:0.5;" points="799,251.777 790.316,251.663 780.002,245.754 799,245.733 		"/>
		<polygon style="stroke:#000000;stroke-width:0.5;" points="391.316,243.137 353.666,197.692 365.018,199.818 402.186,203.661
			"/>
		<polygon style="stroke:#000000;stroke-width:0.5;" points="648.953,235.307 610.869,243.827 607.806,237.037 644.167,226.322
			"/>
		<polygon style="stroke:#000000;stroke-width:0.5;" points="434.01,206.632 391.316,243.137 402.186,203.661 434.276,219.079 		"/>
		<polygon style="stroke:#000000;stroke-width:0.5;" points="208.482,239.925 173.853,211.886 199.324,172.413 224.571,224.708
			"/>
		<polygon style="stroke:#000000;stroke-width:0.5;" points="689.699,219.224 648.953,235.307 644.167,226.322 680.345,229.393
			"/>
		<polygon style="stroke:#000000;stroke-width:0.5;" points="279.032,233.569 244.333,205.959 258.567,204.326 289.257,209.186
			"/>
		<polygon style="stroke:#000000;stroke-width:0.5;" points="173.853,211.886 139.539,151.729 155.845,169.499 199.324,172.413
			"/>
		<polygon style="stroke:#000000;stroke-width:0.5;" points="313.255,254.057 279.032,233.569 289.257,209.186 323.78,228.878 		"/>
		<polygon style="stroke:#000000;stroke-width:0.5;" points="799,258.57 763.963,250.318 752.618,250.945 790.316,251.663
			799,257.558 		"/>
		<polygon style="stroke:#000000;stroke-width:0.5;" points="799,257.558 790.316,251.663 799,251.777 		"/>
		<polygon style="stroke:#000000;stroke-width:0.5;" points="192.668,244.859 154.857,237.208 173.853,211.886 208.482,239.925
			"/>
		<polygon style="stroke:#000000;stroke-width:0.5;" points="462.381,228.576 427.797,213.674 434.01,206.632 468.054,211.768 		"/>
		<polygon style="stroke:#000000;stroke-width:0.5;" points="227.352,240.699 192.668,244.859 208.482,239.925 244.333,205.959
			"/>
		<polygon style="stroke:#000000;stroke-width:0.5;" points="108.797,213.866 71.068,215.431 90.633,210.825 139.539,151.729 		"/>
		<polygon style="stroke:#000000;stroke-width:0.5;" points="154.857,237.208 108.797,213.866 139.539,151.729 173.853,211.886
			"/>
		<polygon style="stroke:#000000;stroke-width:0.5;" points="264.832,258.191 227.352,240.699 244.333,205.959 279.032,233.569
			"/>
		<polygon style="stroke:#000000;stroke-width:0.5;" points="499.114,229.356 462.381,228.576 468.054,211.768 506.704,210.85 		"/>
		<polygon style="stroke:#000000;stroke-width:0.5;" points="300.821,247.249 264.832,258.191 279.032,233.569 313.255,254.057
			"/>
		<polygon style="stroke:#000000;stroke-width:0.5;" points="102.748,261.393 67.151,261.591 71.068,215.431 108.797,213.866 		"/>
		<polygon style="stroke:#000000;stroke-width:0.5;" points="540.713,213.097 499.114,229.356 506.704,210.85 541.795,219.333 		"/>
		<polygon style="stroke:#000000;stroke-width:0.5;" points="137.053,238.215 102.748,261.393 108.797,213.866 154.857,237.208
			"/>
		<polygon style="stroke:#000000;stroke-width:0.5;" points="617.214,238.847 580.953,216.07 576.78,226.037 615.347,219.661 		"/>
		<polygon style="stroke:#000000;stroke-width:0.5;" points="658.233,249.661 617.214,238.847 615.347,219.661 653.182,206.357
			"/>
		<polygon style="stroke:#000000;stroke-width:0.5;" points="250.391,268.242 210.625,245.85 227.352,240.699 264.832,258.191 		"/>
		<polygon style="stroke:#000000;stroke-width:0.5;" points="457.503,248.371 415.538,202.411 427.797,213.674 462.381,228.576
			"/>
		<polygon style="stroke:#000000;stroke-width:0.5;" points="495.104,244.338 457.503,248.371 462.381,228.576 499.114,229.356
			"/>
		<polygon style="stroke:#000000;stroke-width:0.5;" points="699.609,247.143 658.233,249.661 653.182,206.357 693.868,193.963
			"/>
		<polygon style="stroke:#000000;stroke-width:0.5;" points="288.907,255.437 250.391,268.242 264.832,258.191 300.821,247.249
			"/>
		<polygon style="stroke:#000000;stroke-width:0.5;" points="537.549,237.862 495.104,244.338 499.114,229.356 540.713,213.097
			"/>
		<polygon style="stroke:#000000;stroke-width:0.5;" points="799,252.763 794.557,249.615 787.723,212.39 799,234.355 		"/>
		<polygon style="stroke:#000000;stroke-width:0.5;" points="577.493,262.229 537.549,237.862 540.713,213.097 580.953,216.07 		"/>
		<polygon style="stroke:#000000;stroke-width:0.5;" points="749.186,232.362 699.609,247.143 693.868,193.963 737.089,171.337
			"/>
		<polygon style="stroke:#000000;stroke-width:0.5;" points="794.557,249.615 749.186,232.362 737.089,171.337 787.723,212.39 		"/>
		<polygon style="stroke:#000000;stroke-width:0.5;" points="327.521,239.251 288.907,255.437 300.821,247.249 335.8,183.071 		"/>
		<polygon style="stroke:#000000;stroke-width:0.5;" points="620.886,261.683 577.493,262.229 580.953,216.07 617.214,238.847 		"/>
		<polygon style="stroke:#000000;stroke-width:0.5;" points="367.661,235.089 327.521,239.251 335.8,183.071 372.336,189.659 		"/>
		<polygon style="stroke:#000000;stroke-width:0.5;" points="149.829,241.009 108.07,216.273 137.053,238.215 172.67,226.824 		"/>
		<polygon style="stroke:#000000;stroke-width:0.5;" points="664.47,257.064 620.886,261.683 617.214,238.847 658.233,249.661 		"/>
		<polygon style="stroke:#000000;stroke-width:0.5;" points="408.828,240.097 367.661,235.089 372.336,189.659 415.538,202.411
			"/>
		<polygon style="stroke:#000000;stroke-width:0.5;" points="193.038,255.193 149.829,241.009 172.67,226.824 210.625,245.85 		"/>
		<polygon style="stroke:#000000;stroke-width:0.5;" points="234.382,279.324 193.038,255.193 210.625,245.85 250.391,268.242 		"/>
		<polygon style="stroke:#000000;stroke-width:0.5;" points="454.047,256.792 408.828,240.097 415.538,202.411 457.503,248.371
			"/>
		<polygon style="stroke:#000000;stroke-width:0.5;" points="708.897,253.669 664.47,257.064 658.233,249.661 699.609,247.143 		"/>
		<polygon style="stroke:#000000;stroke-width:0.5;" points="274.824,276.34 234.382,279.324 250.391,268.242 288.907,255.437 		"/>
		<polygon style="stroke:#000000;stroke-width:0.5;" points="754.353,258.915 708.897,253.669 699.609,247.143 749.186,232.362
			"/>
		<polygon style="stroke:#000000;stroke-width:0.5;" points="495.029,242.632 454.047,256.792 457.503,248.371 495.104,244.338
			"/>
		<polygon style="stroke:#000000;stroke-width:0.5;" points="52.673,267.087 15.71,278.09 39.983,255.36 69.33,207.121 		"/>
		<polygon style="stroke:#000000;stroke-width:0.5;" points="799,258.8 754.353,258.915 749.186,232.362 794.557,249.615
			799,256.637 		"/>
		<polygon style="stroke:#000000;stroke-width:0.5;" points="799,256.637 794.557,249.615 799,252.763 		"/>
		<polygon style="stroke:#000000;stroke-width:0.5;" points="315.368,265.369 274.824,276.34 288.907,255.437 327.521,239.251 		"/>
		<polygon style="stroke:#000000;stroke-width:0.5;" points="93.607,257.434 52.673,267.087 69.33,207.121 108.07,216.273 		"/>
		<polygon style="stroke:#000000;stroke-width:0.5;" points="358.012,272.561 315.368,265.369 327.521,239.251 367.661,235.089
			"/>
		<polygon style="stroke:#000000;stroke-width:0.5;" points="401.24,276.052 358.012,272.561 367.661,235.089 408.828,240.097 		"/>
		<polygon style="stroke:#000000;stroke-width:0.5;" points="134.203,264.36 93.607,257.434 108.07,216.273 149.829,241.009 		"/>
		<polygon style="stroke:#000000;stroke-width:0.5;" points="174.711,274.855 134.203,264.36 149.829,241.009 193.038,255.193 		"/>
		<polygon style="stroke:#000000;stroke-width:0.5;" points="445.146,258.37 401.24,276.052 408.828,240.097 454.047,256.792 		"/>
		<polygon style="stroke:#000000;stroke-width:0.5;" points="216.606,285.877 174.711,274.855 193.038,255.193 234.382,279.324
			"/>
		<polygon style="stroke:#000000;stroke-width:0.5;" points="718.05,250.328 671.963,260.434 664.47,257.064 708.897,253.669 		"/>
		<polygon style="stroke:#000000;stroke-width:0.5;" points="763.306,273.405 718.05,250.328 708.897,253.669 754.353,258.915 		"/>
		<polygon style="stroke:#000000;stroke-width:0.5;" points="258.485,276.758 216.606,285.877 234.382,279.324 274.824,276.34 		"/>
		<polygon style="stroke:#000000;stroke-width:0.5;" points="799,281.857 763.306,273.405 754.353,258.915 799,258.8 		"/>
		<polygon style="stroke:#000000;stroke-width:0.5;" points="536.158,241.016 493.307,244.324 495.029,242.632 536.369,235.975
			"/>
		<polygon style="stroke:#000000;stroke-width:0.5;" points="581.472,253.666 536.158,241.016 536.369,235.975 583.844,220.643
			"/>
		<polygon style="stroke:#000000;stroke-width:0.5;" points="112.039,274.837 68.085,249.119 93.607,257.434 134.203,264.36 		"/>
		<polygon style="stroke:#000000;stroke-width:0.5;" points="393.153,279.411 346.642,271.767 358.012,272.561 401.24,276.052 		"/>
		<polygon style="stroke:#000000;stroke-width:0.5;" points="629.538,241.53 581.472,253.666 583.844,220.643 632.918,222.553 		"/>
		<polygon style="stroke:#000000;stroke-width:0.5;" points="155.65,276.015 112.039,274.837 134.203,264.36 174.711,274.855 		"/>
		<polygon style="stroke:#000000;stroke-width:0.5;" points="676.903,255.715 629.538,241.53 632.918,222.553 671.963,260.434 		"/>
		<polygon style="stroke:#000000;stroke-width:0.5;" points="726.895,269.47 676.903,255.715 671.963,260.434 718.05,250.328 		"/>
		<polygon style="stroke:#000000;stroke-width:0.5;" points="439.893,268.335 393.153,279.411 401.24,276.052 445.146,258.37 		"/>
		<polygon style="stroke:#000000;stroke-width:0.5;" points="193.9,278.175 155.65,276.015 174.711,274.855 216.606,285.877 		"/>
		<polygon style="stroke:#000000;stroke-width:0.5;" points="776.511,267.927 726.895,269.47 718.05,250.328 763.306,273.405 		"/>
		<polygon style="stroke:#000000;stroke-width:0.5;" points="486.589,263.858 439.893,268.335 445.146,258.37 493.307,244.324 		"/>
		<polygon style="stroke:#000000;stroke-width:0.5;" points="534.709,280.123 486.589,263.858 493.307,244.324 536.158,241.016
			"/>
		<polygon style="stroke:#000000;stroke-width:0.5;" points="581.809,288.538 534.709,280.123 536.158,241.016 581.472,253.666
			"/>
		<polygon style="stroke:#000000;stroke-width:0.5;" points="632.444,293.874 581.809,288.538 581.472,253.666 629.538,241.53 		"/>
		<polygon style="stroke:#000000;stroke-width:0.5;" points="334.017,284.885 285.821,255.032 301.605,260.274 346.642,271.767
			"/>
		<polygon style="stroke:#000000;stroke-width:0.5;" points="85.844,275.467 37.096,243.015 68.085,249.119 112.039,274.837 		"/>
		<polygon style="stroke:#000000;stroke-width:0.5;" points="683.922,299.584 632.444,293.874 629.538,241.53 676.903,255.715 		"/>
		<polygon style="stroke:#000000;stroke-width:0.5;" points="383.08,276.657 334.017,284.885 346.642,271.767 393.153,279.411 		"/>
		<polygon style="stroke:#000000;stroke-width:0.5;" points="128.976,276.091 85.844,275.467 112.039,274.837 155.65,276.015 		"/>
		<polygon style="stroke:#000000;stroke-width:0.5;" points="737.757,300.348 683.922,299.584 676.903,255.715 726.895,269.47 		"/>
		<polygon style="stroke:#000000;stroke-width:0.5;" points="432.499,274.794 383.08,276.657 393.153,279.411 439.893,268.335 		"/>
		<polygon style="stroke:#000000;stroke-width:0.5;" points="481.929,286.673 432.499,274.794 439.893,268.335 486.589,263.858
			"/>
		<polygon style="stroke:#000000;stroke-width:0.5;" points="220.483,291.573 167.929,275.966 193.9,278.175 239.946,271.588 		"/>
		<polygon style="stroke:#000000;stroke-width:0.5;" points="533.857,284.594 481.929,286.673 486.589,263.858 534.709,280.123
			"/>
		<polygon style="stroke:#000000;stroke-width:0.5;" points="797.607,245.302 737.757,300.348 726.895,269.47 776.511,267.927 		"/>
		<polygon style="stroke:#000000;stroke-width:0.5;" points="269.492,297.948 220.483,291.573 239.946,271.588 285.821,255.032
			"/>
		<polygon style="stroke:#000000;stroke-width:0.5;" points="319.484,299.429 269.492,297.948 285.821,255.032 334.017,284.885
			"/>
		<polygon style="stroke:#000000;stroke-width:0.5;" points="0.798,262.602 0,262.283 0,227.294 37.096,243.015 		"/>
		<polygon style="stroke:#000000;stroke-width:0.5;" points="370.842,312.546 319.484,299.429 334.017,284.885 383.08,276.657 		"/>
		<polygon style="stroke:#000000;stroke-width:0.5;" points="49.303,301.161 0.798,262.602 37.096,243.015 85.844,275.467 		"/>
		<polygon style="stroke:#000000;stroke-width:0.5;" points="97.193,304.98 49.303,301.161 85.844,275.467 128.976,276.091 		"/>
		<polygon style="stroke:#000000;stroke-width:0.5;" points="424.041,309.45 370.842,312.546 383.08,276.657 432.499,274.794 		"/>
		<polygon style="stroke:#000000;stroke-width:0.5;" points="478.546,292.839 424.041,309.45 432.499,274.794 481.929,286.673 		"/>
		<polygon style="stroke:#000000;stroke-width:0.5;" points="799,282.033 750.941,282.188 737.757,300.348 797.607,245.302
			799,248.934 		"/>
		<polygon style="stroke:#000000;stroke-width:0.5;" points="197.97,307.846 140.542,250.195 167.929,275.966 220.483,291.573 		"/>
		<polygon style="stroke:#000000;stroke-width:0.5;" points="250.318,319.123 197.97,307.846 220.483,291.573 269.492,297.948 		"/>
		<polygon style="stroke:#000000;stroke-width:0.5;" points="799,248.934 797.607,245.302 799,245.832 		"/>
		<polygon style="stroke:#000000;stroke-width:0.5;" points="302.988,306.9 250.318,319.123 269.492,297.948 319.484,299.429 		"/>
		<polygon style="stroke:#000000;stroke-width:0.5;" points="0,262.283 0.798,262.602 0,263.052 		"/>
		<polygon style="stroke:#000000;stroke-width:0.5;" points="357.568,302.672 302.988,306.9 319.484,299.429 370.842,312.546 		"/>
		<polygon style="stroke:#000000;stroke-width:0.5;" points="13.942,289.906 0,288.219 0,263.052 0.798,262.602 49.303,301.161
			"/>
		<polygon style="stroke:#000000;stroke-width:0.5;" points="66.667,322.428 13.942,289.906 49.303,301.161 97.193,304.98 		"/>
		<polygon style="stroke:#000000;stroke-width:0.5;" points="413.711,320.664 357.568,302.672 370.842,312.546 424.041,309.45 		"/>
		<polygon style="stroke:#000000;stroke-width:0.5;" points="773.214,292.424 703.26,304.204 692.265,286.401 750.941,282.188 		"/>
		<polygon style="stroke:#000000;stroke-width:0.5;" points="117.775,312.04 66.667,322.428 97.193,304.98 140.542,250.195 		"/>
		<polygon style="stroke:#000000;stroke-width:0.5;" points="799,295.588 773.214,292.424 750.941,282.188 799,282.033 		"/>
		<polygon style="stroke:#000000;stroke-width:0.5;" points="172.358,316.176 117.775,312.04 140.542,250.195 197.97,307.846 		"/>
		<polygon style="stroke:#000000;stroke-width:0.5;" points="591.947,313.153 534.432,284.874 534.431,275.358 591.51,261.736 		"/>
		<polygon style="stroke:#000000;stroke-width:0.5;" points="228.054,319.531 172.358,316.176 197.97,307.846 250.318,319.123 		"/>
		<polygon style="stroke:#000000;stroke-width:0.5;" points="653.646,299.041 591.947,313.153 591.51,261.736 646.61,255.475 		"/>
		<polygon style="stroke:#000000;stroke-width:0.5;" points="342.506,322.527 282.92,306.632 302.988,306.9 357.568,302.672 		"/>
		<polygon style="stroke:#000000;stroke-width:0.5;" points="0,288.219 13.942,289.906 0,293.954 		"/>
		<polygon style="stroke:#000000;stroke-width:0.5;" points="719.217,298.473 653.646,299.041 646.61,255.475 703.26,304.204 		"/>
		<polygon style="stroke:#000000;stroke-width:0.5;" points="402.549,321.769 342.506,322.527 357.568,302.672 413.711,320.664
			"/>
		<polygon style="stroke:#000000;stroke-width:0.5;" points="23.382,301.723 0,302.306 0,293.954 13.942,289.906 66.667,322.428
			"/>
		<polygon style="stroke:#000000;stroke-width:0.5;" points="785.533,319.023 719.217,298.473 703.26,304.204 773.214,292.424 		"/>
		<polygon style="stroke:#000000;stroke-width:0.5;" points="82.083,333.407 23.382,301.723 66.667,322.428 117.775,312.04 		"/>
		<polygon style="stroke:#000000;stroke-width:0.5;" points="141.644,342.925 82.083,333.407 117.775,312.04 172.358,316.176 		"/>
		<polygon style="stroke:#000000;stroke-width:0.5;" points="465.52,296.424 402.549,321.769 413.711,320.664 471.257,281.476 		"/>
		<polygon style="stroke:#000000;stroke-width:0.5;" points="529.971,320.777 465.52,296.424 471.257,281.476 534.432,284.874 		"/>
		<polygon style="stroke:#000000;stroke-width:0.5;" points="799,314.768 785.533,319.023 773.214,292.424 799,295.588 		"/>
		<polygon style="stroke:#000000;stroke-width:0.5;" points="200.72,339.018 141.644,342.925 172.358,316.176 228.054,319.531 		"/>
		<polygon style="stroke:#000000;stroke-width:0.5;" points="596.939,305.31 529.971,320.777 534.432,284.874 591.947,313.153 		"/>
		<polygon style="stroke:#000000;stroke-width:0.5;" points="261.086,308.345 200.72,339.018 228.054,319.531 282.92,306.632 		"/>
		<polygon style="stroke:#000000;stroke-width:0.5;" points="664.698,307.026 596.939,305.31 591.947,313.153 653.646,299.041 		"/>
		<polygon style="stroke:#000000;stroke-width:0.5;" points="325.375,337.741 261.086,308.345 282.92,306.632 342.506,322.527 		"/>
		<polygon style="stroke:#000000;stroke-width:0.5;" points="0,302.306 23.382,301.723 0,324.511 		"/>
		<polygon style="stroke:#000000;stroke-width:0.5;" points="735.164,296.875 664.698,307.026 653.646,299.041 719.217,298.473
			"/>
		<polygon style="stroke:#000000;stroke-width:0.5;" points="390.972,325.113 325.375,337.741 342.506,322.527 402.549,321.769
			"/>
		<polygon style="stroke:#000000;stroke-width:0.5;" points="456.661,336.374 390.972,325.113 402.549,321.769 465.52,296.424 		"/>
		<polygon style="stroke:#000000;stroke-width:0.5;" points="40.188,337.233 0,341.761 0,324.511 23.382,301.723 82.083,333.407
			"/>
		<polygon style="stroke:#000000;stroke-width:0.5;" points="527.029,356.257 456.661,336.374 465.52,296.424 529.971,320.777 		"/>
		<polygon style="stroke:#000000;stroke-width:0.5;" points="799,330.894 785.533,319.023 799,314.768 		"/>
		<polygon style="stroke:#000000;stroke-width:0.5;" points="598.154,348.989 527.029,356.257 529.971,320.777 596.939,305.31 		"/>
		<polygon style="stroke:#000000;stroke-width:0.5;" points="672.068,358.454 598.154,348.989 596.939,305.31 664.698,307.026 		"/>
		<polygon style="stroke:#000000;stroke-width:0.5;" points="747.578,378.123 672.068,358.454 664.698,307.026 735.164,296.875
			"/>
		<polygon style="stroke:#000000;stroke-width:0.5;" points="307.453,334.662 233.736,322.243 261.086,308.345 325.375,337.741
			"/>
		<polygon style="stroke:#000000;stroke-width:0.5;" points="799,383.114 747.578,378.123 735.164,296.875 799,332.421 		"/>
		<polygon style="stroke:#000000;stroke-width:0.5;" points="0,341.761 40.188,337.233 0,388.987 		"/>
		<polygon style="stroke:#000000;stroke-width:0.5;" points="450.412,343.546 375.334,316.805 390.972,325.113 456.661,336.374
			"/>
		<polygon style="stroke:#000000;stroke-width:0.5;" points="64.431,390.245 0,393.362 0,388.987 40.188,337.233 100.759,318.665
			"/>
		<polygon style="stroke:#000000;stroke-width:0.5;" points="525.321,370.723 450.412,343.546 456.661,336.374 527.029,356.257
			"/>
		<polygon style="stroke:#000000;stroke-width:0.5;" points="604.306,357.19 525.321,370.723 527.029,356.257 598.154,348.989 		"/>
		<polygon style="stroke:#000000;stroke-width:0.5;" points="125.645,310.287 64.431,390.245 100.759,318.665 165.627,309.918 		"/>
		<polygon style="stroke:#000000;stroke-width:0.5;" points="685.367,370.176 604.306,357.19 598.154,348.989 672.068,358.454 		"/>
		<polygon style="stroke:#000000;stroke-width:0.5;" points="765.193,411.564 685.367,370.176 672.068,358.454 747.578,378.123
			"/>
		<polygon style="stroke:#000000;stroke-width:0.5;" points="198.545,317.103 125.645,310.287 165.627,309.918 233.736,322.243
			"/>
		<polygon style="stroke:#000000;stroke-width:0.5;" points="799,416.084 765.193,411.564 747.578,378.123 799,383.114 		"/>
		<polygon style="stroke:#000000;stroke-width:0.5;" points="440.277,387.301 365.039,318.98 375.334,316.805 450.412,343.546 		"/>
		<polygon style="stroke:#000000;stroke-width:0.5;" points="519.855,413.337 440.277,387.301 450.412,343.546 525.321,370.723
			"/>
		<polygon style="stroke:#000000;stroke-width:0.5;" points="9.247,391.263 0,395.457 0,393.362 64.431,390.245 		"/>
		<polygon style="stroke:#000000;stroke-width:0.5;" points="86.715,390.926 9.247,391.263 64.431,390.245 125.645,310.287 		"/>
		<polygon style="stroke:#000000;stroke-width:0.5;" points="609.62,394.829 519.855,413.337 525.321,370.723 604.306,357.19 		"/>
		<polygon style="stroke:#000000;stroke-width:0.5;" points="695.746,445.813 609.62,394.829 604.306,357.19 685.367,370.176 		"/>
		<polygon style="stroke:#000000;stroke-width:0.5;" points="791.283,421.602 695.746,445.813 685.367,370.176 765.193,411.564
			"/>
		<polygon style="stroke:#000000;stroke-width:0.5;" points="162.792,349.387 86.715,390.926 125.645,310.287 198.545,317.103 		"/>
		<polygon style="stroke:#000000;stroke-width:0.5;" points="247.486,409.016 162.792,349.387 198.545,317.103 284.552,326.808
			"/>
		<polygon style="stroke:#000000;stroke-width:0.5;" points="335.857,387.657 247.486,409.016 284.552,326.808 365.039,318.98 		"/>
		<polygon style="stroke:#000000;stroke-width:0.5;" points="428.89,334.36 335.857,387.657 365.039,318.98 440.277,387.301 		"/>
		<polygon style="stroke:#000000;stroke-width:0.5;" points="613.625,477.45 517.434,430.909 519.855,413.337 609.62,394.829 		"/>
		<polygon style="stroke:#000000;stroke-width:0.5;" points="714.172,482.684 613.625,477.45 609.62,394.829 695.746,445.813 		"/>
		<polygon style="stroke:#000000;stroke-width:0.5;" points="799,438.325 714.172,482.684 695.746,445.813 791.283,421.602
			799,422.279 		"/>
		<polygon style="stroke:#000000;stroke-width:0.5;" points="211.263,411.97 114.402,377.377 162.792,349.387 247.486,409.016 		"/>
		<polygon style="stroke:#000000;stroke-width:0.5;" points="305.89,419.107 211.263,411.97 247.486,409.016 335.857,387.657 		"/>
		<polygon style="stroke:#000000;stroke-width:0.5;" points="799,422.279 791.283,421.602 799,420.328 		"/>
		<polygon style="stroke:#000000;stroke-width:0.5;" points="406.026,423.159 305.89,419.107 335.857,387.657 428.89,334.36 		"/>
		<polygon style="stroke:#000000;stroke-width:0.5;" points="514.696,441.271 406.026,423.159 428.89,334.36 517.434,430.909 		"/>
		<polygon style="stroke:#000000;stroke-width:0.5;" points="629.692,484.009 514.696,441.271 517.434,430.909 613.625,477.45 		"/>
		<polygon style="stroke:#000000;stroke-width:0.5;" points="0,341.557 17.318,348.071 0,359.812 		"/>
		<polygon style="stroke:#000000;stroke-width:0.5;" points="44.54,399.554 0,398.141 0,359.812 17.318,348.071 114.402,377.377
			"/>
		<polygon style="stroke:#000000;stroke-width:0.5;" points="160.692,405.783 44.54,399.554 114.402,377.377 211.263,411.97 		"/>
		<polygon style="stroke:#000000;stroke-width:0.5;" points="513.648,491.646 397.607,403.447 406.026,423.159 514.696,441.271
			"/>
		<polygon style="stroke:#000000;stroke-width:0.5;" points="634.478,588.598 513.648,491.646 514.696,441.271 629.692,484.009
			"/>
		<polygon style="stroke:#000000;stroke-width:0.5;" points="0,398.141 44.54,399.554 0,479.131 		"/>
		<polygon style="stroke:#000000;stroke-width:0.5;" points="94.331,522.956 0,526.721 0,479.131 44.54,399.554 160.692,405.783
			"/>
		<polygon style="stroke:#000000;stroke-width:0.5;" points="794.989,420.166 634.478,588.598 629.692,484.009 756.787,363.153
			"/>
		<polygon style="stroke:#000000;stroke-width:0.5;" points="799,423.521 794.989,420.166 756.787,363.153 799,389.836 		"/>
		<polygon style="stroke:#000000;stroke-width:0.5;" points="219.779,518.246 94.331,522.956 160.692,405.783 276.414,386.032 		"/>
		<polygon style="stroke:#000000;stroke-width:0.5;" points="360.164,504.257 219.779,518.246 276.414,386.032 397.607,403.447
			"/>
		<polygon style="stroke:#000000;stroke-width:0.5;" points="504.198,599 360.164,504.257 397.607,403.447 513.648,491.646
			504.551,599 		"/>
		<polygon style="stroke:#000000;stroke-width:0.5;" points="504.551,599 513.648,491.646 634.478,588.598 636.143,599 		"/>
		<polygon style="stroke:#000000;stroke-width:0.5;" points="636.143,599 634.478,588.598 794.989,420.166 799,466.223 		"/>
		<polygon style="stroke:#000000;stroke-width:0.5;" points="0,526.721 94.331,522.956 42.87,599 		"/>
		<polygon style="stroke:#000000;stroke-width:0.5;" points="799,466.223 794.989,420.166 799,423.521 		"/>
		<polygon style="stroke:#000000;stroke-width:0.5;" points="42.87,599 94.331,522.956 219.779,518.246 178.444,599 		"/>
		<polygon style="stroke:#000000;stroke-width:0.5;" points="178.444,599 219.779,518.246 360.164,504.257 331.082,599 		"/>
		<polygon style="stroke:#000000;stroke-width:0.5;" points="331.082,599 360.164,504.257 504.198,599 		"/>
	</g>
</g>
<g id="Layer_x28_0_x29_">
	<g id="Lines">
		<g>

				<line style="fill:none;stroke:#61C6C1;stroke-linecap:round;stroke-linejoin:round;" x1="634.478" y1="588.598" x2="794.989" y2="420.166"/>
			<polyline style="fill:none;stroke:#61C6C1;stroke-linecap:round;stroke-linejoin:round;" points="614.444,476.796
				671.344,431.368 691.55,415.236 723.334,389.861 724.308,389.083 740.383,376.249 746.645,372.015 756.787,363.153 			"/>
			<polyline style="fill:none;stroke:#61C6C1;stroke-linecap:round;stroke-linejoin:round;" points="504.198,599 360.164,504.257
				219.779,518.246 94.331,522.956 42.87,599 			"/>
			<polyline style="fill:none;stroke:#61C6C1;stroke-linecap:round;stroke-linejoin:round;" points="517.434,430.909
				613.573,476.384 614.444,476.796 616.099,477.579 629.692,484.009 			"/>
			<polyline style="fill:none;stroke:#61C6C1;stroke-linecap:round;stroke-linejoin:round;" points="517.434,430.909
				613.625,477.45 629.692,484.009 			"/>
			<polyline style="fill:none;stroke:#61C6C1;stroke-linecap:round;stroke-linejoin:round;" points="634.478,588.598
				629.692,484.009 635.398,478.583 679.792,436.368 692.758,424.038 726.806,391.661 742.449,376.787 746.645,372.015
				756.787,363.153 			"/>
			<polyline style="fill:none;stroke:#61C6C1;stroke-linecap:round;stroke-linejoin:round;" points="331.082,599 360.164,504.257
				397.607,403.447 			"/>
			<polyline style="fill:none;stroke:#61C6C1;stroke-linecap:round;stroke-linejoin:round;" points="0,526.721 94.331,522.956
				160.692,405.783 183.189,401.943 226.855,394.491 256.302,389.465 276.414,386.032 317.91,391.995 330.06,393.741
				397.607,403.447 408.893,412.025 428.461,426.898 513.648,491.646 504.551,599 			"/>
			<polyline style="fill:none;stroke:#61C6C1;stroke-linecap:round;stroke-linejoin:round;" points="178.444,599 219.779,518.246
				276.414,386.032 			"/>
			<polyline style="fill:none;stroke:#61C6C1;stroke-linecap:round;stroke-linejoin:round;" points="428.461,426.898
				514.696,441.271 613.123,477.851 629.692,484.009 			"/>
			<polyline style="fill:none;stroke:#61C6C1;stroke-linecap:round;stroke-linejoin:round;" points="613.573,476.384
				609.62,394.829 604.306,357.19 598.154,348.989 596.939,305.31 			"/>
			<polyline style="fill:none;stroke:#61C6C1;stroke-linecap:round;stroke-linejoin:round;" points="653.646,299.041
				695.951,297.917 717.319,297.349 735.164,296.875 			"/>
			<polyline style="fill:none;stroke:#61C6C1;stroke-linecap:round;stroke-linejoin:round;" points="140.542,250.195
				142.445,252.044 163.722,272.008 167.232,275.31 167.929,275.966 181.392,279.964 220.483,291.573 269.492,297.948
				319.484,299.429 334.017,284.885 346.642,271.767 357.83,273.268 383.08,276.657 400.571,275.998 401.257,275.972
				401.458,275.964 408.878,275.685 432.499,274.794 439.893,268.335 445.146,258.37 452.506,256.223 454.521,255.636
				472.947,250.262 492.182,244.652 493.307,244.324 495.029,242.632 495.585,242.543 524.783,237.84 536.369,235.975
				537.851,235.496 580.53,221.713 583.844,220.643 588.522,220.825 604.537,221.448 615.562,221.877 632.918,222.553
				657.207,240.866 668.079,249.062 676.529,255.548 676.903,255.715 678.037,256.027 684.255,257.738 726.895,269.47
				744.075,263.598 752.531,260.708 754.567,260.012 754.95,259.881 757.804,258.906 790.027,247.893 793.992,246.538
				797.607,245.302 799,245.832 			"/>
			<polyline style="fill:none;stroke:#61C6C1;stroke-linecap:round;stroke-linejoin:round;" points="746.54,371.333
				735.455,298.783 735.164,296.875 			"/>
			<polyline style="fill:none;stroke:#61C6C1;stroke-linecap:round;stroke-linejoin:round;" points="183.189,401.943
				114.402,377.377 112.553,376.818 95.946,371.805 81.814,367.539 76.733,366.006 29.028,351.605 17.318,348.071 0,359.812 			"/>
			<polyline style="fill:none;stroke:#61C6C1;stroke-linecap:round;stroke-linejoin:round;" points="81.814,367.539
				121.358,315.887 124.896,311.266 125.645,310.287 175.991,314.994 198.545,317.103 			"/>
			<polyline style="fill:none;stroke:#61C6C1;stroke-linecap:round;stroke-linejoin:round;" points="95.946,371.805
				123.052,315.659 125.221,311.166 125.645,310.287 			"/>
			<polyline style="fill:none;stroke:#61C6C1;stroke-linecap:round;stroke-linejoin:round;" points="737.089,171.337
				787.723,212.39 793.992,246.538 			"/>

				<line style="fill:none;stroke:#61C6C1;stroke-linecap:round;stroke-linejoin:round;" x1="646.61" y1="255.475" x2="695.951" y2="297.917"/>
			<polyline style="fill:none;stroke:#61C6C1;stroke-linecap:round;stroke-linejoin:round;" points="737.089,171.337
				749.186,232.362 790.027,247.893 			"/>

				<line style="fill:none;stroke:#61C6C1;stroke-linecap:round;stroke-linejoin:round;" x1="224.563" y1="224.69" x2="199.324" y2="172.413"/>
			<polyline style="fill:none;stroke:#61C6C1;stroke-linecap:round;stroke-linejoin:round;" points="282.92,306.632
				288.213,308.044 338.782,321.534 			"/>
			<polyline style="fill:none;stroke:#61C6C1;stroke-linecap:round;stroke-linejoin:round;" points="285.821,255.032
				287.456,256.045 289.154,257.097 312.491,271.552 334.017,284.885 379.774,277.212 383.08,276.657 			"/>
			<polyline style="fill:none;stroke:#61C6C1;stroke-linecap:round;stroke-linejoin:round;" points="425.877,312.38
				435.151,306.064 455.092,292.484 468.399,283.422 471.257,281.476 			"/>
			<polyline style="fill:none;stroke:#61C6C1;stroke-linecap:round;stroke-linejoin:round;" points="302.988,306.9 338.09,304.181
				357.568,302.672 			"/>
			<polyline style="fill:none;stroke:#61C6C1;stroke-linecap:round;stroke-linejoin:round;" points="757.525,282.167
				772.885,268.04 782.886,258.842 793.397,249.174 794.32,248.326 797.607,245.302 			"/>

				<line style="fill:none;stroke:#61C6C1;stroke-linecap:round;stroke-linejoin:round;" x1="534.432" y1="284.874" x2="582.689" y2="308.601"/>
			<polyline style="fill:none;stroke:#61C6C1;stroke-linecap:round;stroke-linejoin:round;" points="76.733,366.006
				100.759,318.665 121.358,315.887 			"/>
			<polyline style="fill:none;stroke:#61C6C1;stroke-linecap:round;stroke-linejoin:round;" points="698.122,285.981
				731.851,283.559 750.941,282.188 755.316,284.199 773.214,292.424 785.533,319.023 799,330.894 			"/>
			<polyline style="fill:none;stroke:#61C6C1;stroke-linecap:round;stroke-linejoin:round;" points="405.793,327.653 425.9,331.101
				429.567,331.729 456.661,336.374 527.029,356.257 598.154,348.989 629.07,352.948 672.068,358.454 684.192,361.612
				740.383,376.249 			"/>
			<polyline style="fill:none;stroke:#61C6C1;stroke-linecap:round;stroke-linejoin:round;" points="756.787,363.153
				786.437,381.895 799,389.836 			"/>
			<polyline style="fill:none;stroke:#61C6C1;stroke-linecap:round;stroke-linejoin:round;" points="750.941,282.188
				757.525,282.167 799,282.033 			"/>
			<polyline style="fill:none;stroke:#61C6C1;stroke-linecap:round;stroke-linejoin:round;" points="799,466.223 794.989,420.166
				756.787,363.153 			"/>
			<polyline style="fill:none;stroke:#61C6C1;stroke-linecap:round;stroke-linejoin:round;" points="691.55,415.236
				685.367,370.176 672.068,358.454 664.698,307.026 653.646,299.041 646.61,255.475 			"/>
			<polyline style="fill:none;stroke:#61C6C1;stroke-linecap:round;stroke-linejoin:round;" points="0,398.141 44.54,399.554
				160.692,405.783 			"/>
			<polyline style="fill:none;stroke:#61C6C1;stroke-linecap:round;stroke-linejoin:round;" points="208.482,239.925
				173.853,211.886 149.429,169.068 139.539,151.729 			"/>

				<line style="fill:none;stroke:#61C6C1;stroke-linecap:round;stroke-linejoin:round;" x1="46.381" y1="244.844" x2="69.33" y2="207.121"/>

				<line style="fill:none;stroke:#61C6C1;stroke-linecap:round;stroke-linejoin:round;" x1="93.607" y1="257.434" x2="108.07" y2="216.273"/>
			<polyline style="fill:none;stroke:#61C6C1;stroke-linecap:round;stroke-linejoin:round;" points="493.307,244.324
				495.146,244.182 536.158,241.016 581.472,253.666 629.538,241.53 630.856,241.924 662.722,251.468 676.529,255.548
				676.903,255.715 676.966,256.109 680.031,275.268 			"/>

				<line style="fill:none;stroke:#61C6C1;stroke-linecap:round;stroke-linejoin:round;" x1="685.367" y1="370.176" x2="723.334" y2="389.861"/>
			<polyline style="fill:none;stroke:#61C6C1;stroke-linecap:round;stroke-linejoin:round;" points="676.659,255.531
				706.252,251.811 718.05,250.328 741.74,257.459 752.531,260.708 			"/>

				<line style="fill:none;stroke:#61C6C1;stroke-linecap:round;stroke-linejoin:round;" x1="58.205" y1="247.173" x2="69.33" y2="207.121"/>
			<polyline style="fill:none;stroke:#61C6C1;stroke-linecap:round;stroke-linejoin:round;" points="632.918,222.553
				657.898,246.788 662.722,251.468 			"/>
			<polyline style="fill:none;stroke:#61C6C1;stroke-linecap:round;stroke-linejoin:round;" points="237.447,316.35 197.97,307.846
				171.593,281.366 166.055,275.807 165.493,275.243 161.766,271.501 142.445,252.044 140.542,250.195 			"/>
			<polyline style="fill:none;stroke:#61C6C1;stroke-linecap:round;stroke-linejoin:round;" points="0,227.294 37.096,243.015
				44.496,247.942 85.844,275.467 112.039,274.837 126.424,268.037 			"/>
			<polyline style="fill:none;stroke:#61C6C1;stroke-linecap:round;stroke-linejoin:round;" points="0.418,341.714 40.188,337.233
				41.436,336.851 71.429,327.656 100.759,318.665 114.353,314.089 117.398,313.064 119.948,312.205 125.645,310.287
				165.627,309.918 182.314,312.938 199.678,316.08 212.581,318.415 214.105,318.691 216.57,319.137 			"/>
			<polyline style="fill:none;stroke:#61C6C1;stroke-linecap:round;stroke-linejoin:round;" points="69.33,207.121 87.817,211.488
				89.714,211.936 99.512,214.251 108.07,216.273 108.461,216.504 142.287,236.541 149.829,241.009 193.038,255.193 210.625,245.85
				227.352,240.699 264.832,258.191 282.331,252.871 300.821,247.249 301.082,246.769 313.904,223.245 319.245,213.446
				320.437,211.259 325.374,202.202 325.588,201.809 325.649,201.696 335.8,183.071 			"/>
			<polyline style="fill:none;stroke:#61C6C1;stroke-linecap:round;stroke-linejoin:round;" points="358.012,272.561
				367.661,235.089 372.336,189.659 			"/>
			<polyline style="fill:none;stroke:#61C6C1;stroke-linecap:round;stroke-linejoin:round;" points="385.684,311.682
				424.041,309.45 453.617,291.927 468.096,283.349 471.257,281.476 482.863,282.1 499.097,282.973 508.473,283.478
				534.432,284.874 591.866,303.651 596.939,305.31 623.317,305.978 664.698,307.026 724.379,298.429 735.164,296.875
				737.862,298.377 761.645,311.621 778.774,321.159 789.214,326.972 799,332.421 			"/>
			<polyline style="fill:none;stroke:#61C6C1;stroke-linecap:round;stroke-linejoin:round;" points="335.8,183.071 372.336,189.659
				415.538,202.411 418.563,205.19 426.822,212.778 427.797,213.674 462.381,228.576 499.114,229.356 531.268,216.788
				540.713,213.097 580.953,216.07 584.033,218.005 588.522,220.825 			"/>

				<line style="fill:none;stroke:#61C6C1;stroke-linecap:round;stroke-linejoin:round;" x1="224.831" y1="273.75" x2="193.038" y2="255.193"/>
			<polyline style="fill:none;stroke:#61C6C1;stroke-linecap:round;stroke-linejoin:round;" points="401.257,275.972
				408.828,240.097 415.538,202.411 			"/>
			<polyline style="fill:none;stroke:#61C6C1;stroke-linecap:round;stroke-linejoin:round;" points="499.097,282.973
				525.992,277.177 534.431,275.358 534.89,275.249 581.573,264.107 591.51,261.736 630.415,257.315 646.61,255.475
				680.031,275.268 698.122,285.981 717.319,297.349 			"/>
			<polyline style="fill:none;stroke:#61C6C1;stroke-linecap:round;stroke-linejoin:round;" points="737.862,298.377
				773.214,292.424 799,295.588 			"/>
			<polyline style="fill:none;stroke:#61C6C1;stroke-linecap:round;stroke-linejoin:round;" points="684.255,257.738
				699.556,254.383 707.449,252.652 718.05,250.328 729.198,256.012 744.075,263.598 			"/>
			<polyline style="fill:none;stroke:#61C6C1;stroke-linecap:round;stroke-linejoin:round;" points="534.89,275.249
				536.158,241.016 536.369,235.975 			"/>
			<polyline style="fill:none;stroke:#61C6C1;stroke-linecap:round;stroke-linejoin:round;" points="346.642,271.767
				357.747,273.592 379.774,277.212 			"/>

				<line style="fill:none;stroke:#61C6C1;stroke-linecap:round;stroke-linejoin:round;" x1="0" y1="324.511" x2="23.382" y2="301.723"/>
			<polyline style="fill:none;stroke:#61C6C1;stroke-linecap:round;stroke-linejoin:round;" points="372.57,307.48 382.726,277.697
				383.08,276.657 			"/>
			<polyline style="fill:none;stroke:#61C6C1;stroke-linecap:round;stroke-linejoin:round;" points="142.287,236.541
				149.186,234.335 159.483,231.042 172.67,226.824 			"/>
			<polyline style="fill:none;stroke:#61C6C1;stroke-linecap:round;stroke-linejoin:round;" points="408.878,275.685
				422.638,272.424 439.893,268.335 486.589,263.858 525.992,277.177 			"/>
			<polyline style="fill:none;stroke:#61C6C1;stroke-linecap:round;stroke-linejoin:round;" points="668.079,249.062
				699.609,247.143 749.186,232.362 			"/>
			<polyline style="fill:none;stroke:#61C6C1;stroke-linecap:round;stroke-linejoin:round;" points="623.317,305.978
				653.646,299.041 719.217,298.473 735.164,296.875 			"/>

				<line style="fill:none;stroke:#61C6C1;stroke-linecap:round;stroke-linejoin:round;" x1="457.503" y1="248.371" x2="487.834" y2="245.118"/>
			<polyline style="fill:none;stroke:#61C6C1;stroke-linecap:round;stroke-linejoin:round;" points="235.617,321.286
				242.984,317.543 248.558,314.711 259.424,309.066 261.086,308.345 298.498,325.452 			"/>
			<polyline style="fill:none;stroke:#61C6C1;stroke-linecap:round;stroke-linejoin:round;" points="235.619,321.286
				242.985,317.543 248.559,314.71 259.217,309.295 			"/>
			<polyline style="fill:none;stroke:#61C6C1;stroke-linecap:round;stroke-linejoin:round;" points="493.373,404.673
				519.855,413.337 609.62,394.829 671.344,431.368 			"/>
			<polyline style="fill:none;stroke:#61C6C1;stroke-linecap:round;stroke-linejoin:round;" points="224.707,224.553
				243.079,203.613 258.911,190.82 284.399,200.043 295.529,196.831 324.534,201.516 325.588,201.809 			"/>
			<polyline style="fill:none;stroke:#61C6C1;stroke-linecap:round;stroke-linejoin:round;" points="316.027,263.954
				327.521,239.251 335.8,183.071 			"/>
			<polyline style="fill:none;stroke:#61C6C1;stroke-linecap:round;stroke-linejoin:round;" points="508.473,283.478
				527.253,277.603 534.431,275.358 			"/>
			<polyline style="fill:none;stroke:#61C6C1;stroke-linecap:round;stroke-linejoin:round;" points="749.186,232.362
				754.353,258.915 754.95,259.881 			"/>
			<polyline style="fill:none;stroke:#61C6C1;stroke-linecap:round;stroke-linejoin:round;" points="167.929,275.966
				184.193,277.349 193.9,278.175 			"/>

				<line style="fill:none;stroke:#61C6C1;stroke-linecap:round;stroke-linejoin:round;" x1="773.214" y1="292.424" x2="799" y2="292.573"/>
			<polyline style="fill:none;stroke:#61C6C1;stroke-linecap:round;stroke-linejoin:round;" points="301.082,246.769
				279.032,233.569 244.333,205.959 			"/>
			<polyline style="fill:none;stroke:#61C6C1;stroke-linecap:round;stroke-linejoin:round;" points="761.645,311.621
				785.533,319.023 799,314.768 			"/>

				<line style="fill:none;stroke:#61C6C1;stroke-linecap:round;stroke-linejoin:round;" x1="787.723" y1="212.39" x2="799" y2="234.355"/>
			<polyline style="fill:none;stroke:#61C6C1;stroke-linecap:round;stroke-linejoin:round;" points="451.115,209.213
				474.956,204.189 495.15,211.124 			"/>
			<polyline style="fill:none;stroke:#61C6C1;stroke-linecap:round;stroke-linejoin:round;" points="159.483,231.042
				165.386,223.173 173.853,211.886 199.324,172.413 			"/>
			<polyline style="fill:none;stroke:#61C6C1;stroke-linecap:round;stroke-linejoin:round;" points="0,302.306 23.382,301.723
				66.667,322.428 97.193,304.98 			"/>
			<polyline style="fill:none;stroke:#61C6C1;stroke-linecap:round;stroke-linejoin:round;" points="472.947,250.262
				487.834,245.118 489.22,244.639 493.781,242.948 495.029,242.632 			"/>
			<polyline style="fill:none;stroke:#61C6C1;stroke-linecap:round;stroke-linejoin:round;" points="205.562,243.312
				227.352,240.699 244.333,205.959 250.452,205.257 258.567,204.326 			"/>

				<line style="fill:none;stroke:#61C6C1;stroke-linecap:round;stroke-linejoin:round;" x1="239.047" y1="199.697" x2="258.911" y2="190.82"/>
			<polyline style="fill:none;stroke:#61C6C1;stroke-linecap:round;stroke-linejoin:round;" points="430.96,336.617
				450.412,343.546 525.321,370.723 604.306,357.19 685.367,370.176 724.308,389.083 			"/>

				<line style="fill:none;stroke:#61C6C1;stroke-linecap:round;stroke-linejoin:round;" x1="787.723" y1="212.39" x2="799" y2="229.577"/>
			<polyline style="fill:none;stroke:#61C6C1;stroke-linecap:round;stroke-linejoin:round;" points="482.863,282.1 486.589,263.858
				493.233,244.539 493.307,244.324 			"/>
			<polyline style="fill:none;stroke:#61C6C1;stroke-linecap:round;stroke-linejoin:round;" points="317.91,391.995
				335.857,387.657 400.124,350.84 428.89,334.36 			"/>
			<polyline style="fill:none;stroke:#61C6C1;stroke-linecap:round;stroke-linejoin:round;" points="517.434,430.909
				519.855,413.337 525.321,370.723 527.029,356.257 529.971,320.777 534.432,284.874 534.431,275.358 			"/>

				<line style="fill:none;stroke:#61C6C1;stroke-linecap:round;stroke-linejoin:round;" x1="311.503" y1="212.433" x2="324.534" y2="201.516"/>
			<polyline style="fill:none;stroke:#61C6C1;stroke-linecap:round;stroke-linejoin:round;" points="182.314,312.938
				197.97,307.846 220.483,291.573 233.126,278.591 239.946,271.588 			"/>
			<polyline style="fill:none;stroke:#61C6C1;stroke-linecap:round;stroke-linejoin:round;" points="251.656,267.362
				264.832,258.191 279.032,233.569 289.257,209.186 			"/>
			<polyline style="fill:none;stroke:#61C6C1;stroke-linecap:round;stroke-linejoin:round;" points="630.415,257.315
				629.538,241.53 632.918,222.553 			"/>
			<polyline style="fill:none;stroke:#61C6C1;stroke-linecap:round;stroke-linejoin:round;" points="418.563,205.19 434.01,206.632
				451.115,209.213 468.054,211.768 472.694,211.658 484.097,211.387 495.15,211.124 506.704,210.85 540.713,213.097 			"/>
			<polyline style="fill:none;stroke:#61C6C1;stroke-linecap:round;stroke-linejoin:round;" points="259.631,308.838
				260.373,308.019 269.492,297.948 285.821,255.032 			"/>
			<polyline style="fill:none;stroke:#61C6C1;stroke-linecap:round;stroke-linejoin:round;" points="0,293.954 13.942,289.906
				27.149,298.052 66.667,322.428 102.551,315.135 117.775,312.04 119.948,312.205 			"/>
			<polyline style="fill:none;stroke:#61C6C1;stroke-linecap:round;stroke-linejoin:round;" points="0,288.219 13.942,289.906
				49.303,301.161 85.844,275.467 120.153,275.963 			"/>
			<polyline style="fill:none;stroke:#61C6C1;stroke-linecap:round;stroke-linejoin:round;" points="214.105,318.691
				228.054,319.531 237.447,316.35 259.424,309.066 261.086,308.345 282.92,306.632 302.988,306.9 319.484,299.429 357.568,302.672
				372.57,307.48 385.684,311.682 398.346,315.74 409.024,319.162 			"/>
			<polyline style="fill:none;stroke:#61C6C1;stroke-linecap:round;stroke-linejoin:round;" points="495.585,242.543
				499.114,229.356 506.704,210.85 			"/>
			<polyline style="fill:none;stroke:#61C6C1;stroke-linecap:round;stroke-linejoin:round;" points="142.469,252.008
				149.829,241.009 153.904,238.478 172.67,226.824 202.518,241.786 205.134,243.098 205.562,243.312 210.625,245.85
				249.932,267.984 			"/>
			<polyline style="fill:none;stroke:#61C6C1;stroke-linecap:round;stroke-linejoin:round;" points="389.725,321.931
				402.549,321.769 404.731,320.89 409.024,319.162 418.671,315.28 425.877,312.38 461.585,298.008 465.52,296.424 529.971,320.777
				582.689,308.601 596.939,305.31 			"/>
			<polyline style="fill:none;stroke:#61C6C1;stroke-linecap:round;stroke-linejoin:round;" points="741.74,257.459
				754.353,258.915 757.804,258.906 			"/>

				<line style="fill:none;stroke:#61C6C1;stroke-linecap:round;stroke-linejoin:round;" x1="786.437" y1="381.895" x2="799" y2="383.114"/>
			<polyline style="fill:none;stroke:#61C6C1;stroke-linecap:round;stroke-linejoin:round;" points="274.224,206.806
				284.399,200.043 291.602,203.595 308.811,212.081 			"/>
			<polyline style="fill:none;stroke:#61C6C1;stroke-linecap:round;stroke-linejoin:round;" points="447.771,354.948
				450.412,343.546 456.661,336.374 465.52,296.424 470.332,283.886 471.257,281.476 			"/>
			<polyline style="fill:none;stroke:#61C6C1;stroke-linecap:round;stroke-linejoin:round;" points="163.722,272.008
				174.711,274.855 193.9,278.175 224.831,273.75 239.946,271.588 249.932,267.984 251.656,267.362 261.616,263.767
				270.168,260.681 285.821,255.032 287.973,255.747 288.081,255.783 288.565,255.944 301.605,260.274 316.027,263.954
				333.662,268.454 346.642,271.767 358.012,272.561 401.014,275.981 414.879,270.559 435.565,262.228 445.146,258.37 			"/>
			<polyline style="fill:none;stroke:#61C6C1;stroke-linecap:round;stroke-linejoin:round;" points="289.257,209.186
				300.094,210.94 308.811,212.081 311.503,212.433 313.017,212.632 319.245,213.446 			"/>
			<polyline style="fill:none;stroke:#61C6C1;stroke-linecap:round;stroke-linejoin:round;" points="604.537,221.448
				615.347,219.661 653.182,206.357 693.868,193.963 737.089,171.337 			"/>
			<polyline style="fill:none;stroke:#61C6C1;stroke-linecap:round;stroke-linejoin:round;" points="636.143,599 634.478,588.598
				513.648,491.646 514.696,441.271 517.434,430.909 493.373,404.673 447.771,354.948 430.96,336.617 428.89,334.36
				415.709,331.185 392.839,325.676 377.908,322.08 365.039,318.98 343.616,321.063 338.782,321.534 298.498,325.452
				284.552,326.808 235.617,321.286 226.962,320.309 226.057,320.207 216.57,319.137 210.913,318.498 198.545,317.103
				162.792,349.387 114.402,377.377 44.54,399.554 0,479.131 			"/>
			<polyline style="fill:none;stroke:#61C6C1;stroke-linecap:round;stroke-linejoin:round;" points="581.573,264.107
				581.472,253.666 583.844,220.643 			"/>
			<polyline style="fill:none;stroke:#61C6C1;stroke-linecap:round;stroke-linejoin:round;" points="99.512,214.251
				108.797,213.866 149.186,234.335 			"/>
			<polyline style="fill:none;stroke:#61C6C1;stroke-linecap:round;stroke-linejoin:round;" points="120.855,275.075
				112.039,274.837 91.679,262.924 77.642,254.71 68.085,249.119 			"/>
			<polyline style="fill:none;stroke:#61C6C1;stroke-linecap:round;stroke-linejoin:round;" points="330.06,393.741
				335.857,387.657 365.039,318.98 375.334,316.805 389.725,321.931 395.217,323.887 396.315,324.278 405.793,327.653
				415.709,331.185 			"/>
			<polyline style="fill:none;stroke:#61C6C1;stroke-linecap:round;stroke-linejoin:round;" points="706.252,251.811
				699.609,247.143 693.868,193.963 			"/>
			<polyline style="fill:none;stroke:#61C6C1;stroke-linecap:round;stroke-linejoin:round;" points="418.671,315.28 424.041,309.45
				432.499,274.794 			"/>
			<polyline style="fill:none;stroke:#61C6C1;stroke-linecap:round;stroke-linejoin:round;" points="454.521,255.636
				457.503,248.371 462.381,228.576 468.054,211.768 			"/>
			<polyline style="fill:none;stroke:#61C6C1;stroke-linecap:round;stroke-linejoin:round;" points="167.232,275.31
				174.711,274.855 193.038,255.193 			"/>
			<polyline style="fill:none;stroke:#61C6C1;stroke-linecap:round;stroke-linejoin:round;" points="202.518,241.786
				208.482,239.925 224.563,224.69 224.707,224.553 244.333,205.959 			"/>
			<polyline style="fill:none;stroke:#61C6C1;stroke-linecap:round;stroke-linejoin:round;" points="114.353,314.089
				117.775,312.04 130.998,276.12 135.261,264.54 140.542,250.195 			"/>
			<polyline style="fill:none;stroke:#61C6C1;stroke-linecap:round;stroke-linejoin:round;" points="87.817,211.488 90.633,210.825
				139.539,151.729 			"/>
			<polyline style="fill:none;stroke:#61C6C1;stroke-linecap:round;stroke-linejoin:round;" points="108.461,216.504
				108.797,213.866 139.539,151.729 			"/>
			<polyline style="fill:none;stroke:#61C6C1;stroke-linecap:round;stroke-linejoin:round;" points="226.962,320.309
				228.054,319.531 239.606,316.815 248.556,314.711 			"/>
			<polyline style="fill:none;stroke:#61C6C1;stroke-linecap:round;stroke-linejoin:round;" points="287.973,255.747
				288.907,255.437 298.565,251.388 304.584,248.865 327.521,239.251 367.661,235.089 408.828,240.097 452.506,256.223 			"/>
			<polyline style="fill:none;stroke:#61C6C1;stroke-linecap:round;stroke-linejoin:round;" points="0,263.052 0.798,262.602
				37.096,243.015 46.381,244.844 58.205,247.173 68.085,249.119 93.607,257.434 129.913,263.628 			"/>
			<polyline style="fill:none;stroke:#61C6C1;stroke-linecap:round;stroke-linejoin:round;" points="140.542,250.195
				129.913,263.628 126.424,268.037 120.855,275.075 120.153,275.963 97.193,304.98 49.303,301.161 29.473,285.397 0.798,262.602
				0,262.283 			"/>
			<polyline style="fill:none;stroke:#61C6C1;stroke-linecap:round;stroke-linejoin:round;" points="71.429,327.656 64.276,323.795
				23.382,301.723 			"/>
			<polyline style="fill:none;stroke:#61C6C1;stroke-linecap:round;stroke-linejoin:round;" points="400.124,350.84
				376.421,329.316 365.039,318.98 			"/>
			<polyline style="fill:none;stroke:#61C6C1;stroke-linecap:round;stroke-linejoin:round;" points="17.318,348.071 0.418,341.714
				0,341.557 			"/>
			<polyline style="fill:none;stroke:#61C6C1;stroke-linecap:round;stroke-linejoin:round;" points="495.029,242.632
				493.781,242.948 474.453,245.779 457.503,248.371 426.826,214.774 425.801,213.651 424.54,212.27 418.03,205.14 415.538,202.411
							"/>
			<polyline style="fill:none;stroke:#61C6C1;stroke-linecap:round;stroke-linejoin:round;" points="313.904,223.245
				304.798,218.051 290.02,209.622 289.257,209.186 274.224,206.806 258.567,204.326 243.079,203.613 239.047,199.697
				213.275,174.664 199.324,172.413 155.845,169.499 139.539,151.729 			"/>
		</g>
	</g>
</g>
</svg>
